<svg width="24" height="24" viewBox="0 0 24 24" fill="none" xmlns="http://www.w3.org/2000/svg">
<rect width="24" height="24" fill="#1E1E1E"/>
<g filter="url(#filter0_d_0_1)">
<circle cx="12" cy="8" r="8" fill="white"/>
<circle cx="12" cy="8" r="7.9" stroke="black" stroke-width="0.2" stroke-dasharray="0.4 0.4"/>
</g>
<path d="M16.0795 6H15.0227C14.9602 5.69602 14.8509 5.42898 14.6946 5.19886C14.5412 4.96875 14.3537 4.77557 14.1321 4.61932C13.9134 4.46023 13.6705 4.34091 13.4034 4.26136C13.1364 4.18182 12.858 4.14205 12.5682 4.14205C12.0398 4.14205 11.5611 4.27557 11.1321 4.54261C10.706 4.80966 10.3665 5.20312 10.1136 5.72301C9.86364 6.2429 9.73864 6.88068 9.73864 7.63636C9.73864 8.39205 9.86364 9.02983 10.1136 9.54972C10.3665 10.0696 10.706 10.4631 11.1321 10.7301C11.5611 10.9972 12.0398 11.1307 12.5682 11.1307C12.858 11.1307 13.1364 11.0909 13.4034 11.0114C13.6705 10.9318 13.9134 10.8139 14.1321 10.6577C14.3537 10.4986 14.5412 10.304 14.6946 10.0739C14.8509 9.84091 14.9602 9.57386 15.0227 9.27273H16.0795C16 9.71875 15.8551 10.1179 15.6449 10.4702C15.4347 10.8224 15.1733 11.1222 14.8608 11.3693C14.5483 11.6136 14.1974 11.7997 13.8082 11.9276C13.4219 12.0554 13.0085 12.1193 12.5682 12.1193C11.8239 12.1193 11.1619 11.9375 10.5824 11.5739C10.0028 11.2102 9.54688 10.6932 9.21449 10.0227C8.8821 9.35227 8.71591 8.55682 8.71591 7.63636C8.71591 6.71591 8.8821 5.92045 9.21449 5.25C9.54688 4.57955 10.0028 4.0625 10.5824 3.69886C11.1619 3.33523 11.8239 3.15341 12.5682 3.15341C13.0085 3.15341 13.4219 3.21733 13.8082 3.34517C14.1974 3.47301 14.5483 3.66051 14.8608 3.90767C15.1733 4.15199 15.4347 4.45028 15.6449 4.80256C15.8551 5.15199 16 5.55114 16.0795 6Z" fill="black"/>
<line x1="12.5" y1="15" x2="12.5" y2="12" stroke="black"/>
<line x1="12.5" y1="4" x2="12.5" y2="1" stroke="black"/>
<defs>
<filter id="filter0_d_0_1" x="0" y="0" width="24" height="24" filterUnits="userSpaceOnUse" color-interpolation-filters="sRGB">
<feFlood flood-opacity="0" result="BackgroundImageFix"/>
<feColorMatrix in="SourceAlpha" type="matrix" values="0 0 0 0 0 0 0 0 0 0 0 0 0 0 0 0 0 0 127 0" result="hardAlpha"/>
<feOffset dy="4"/>
<feGaussianBlur stdDeviation="2"/>
<feComposite in2="hardAlpha" operator="out"/>
<feColorMatrix type="matrix" values="0 0 0 0 0 0 0 0 0 0 0 0 0 0 0 0 0 0 0.25 0"/>
<feBlend mode="normal" in2="BackgroundImageFix" result="effect1_dropShadow_0_1"/>
<feBlend mode="normal" in="SourceGraphic" in2="effect1_dropShadow_0_1" result="shape"/>
</filter>
</defs>
</svg>
